<svg fill="#e2fcfa" version="1.1" id="Capa_1" xmlns="http://www.w3.org/2000/svg"
    xmlns:xlink="http://www.w3.org/1999/xlink" width="256px" height="256px"
    viewBox="-47.98 -47.98 575.75 575.75" xml:space="preserve" stroke="#e2fcfa"
    stroke-width="0.004797900000000001" transform="matrix(1, 0, 0, 1, 0, 0)rotate(0)">

<g id="bgCarrier" stroke-width="0" transform="translate(0,0), scale(1)">

<path transform="translate(-47.98, -47.98), scale(17.9921875)" d="M16,27.976293552666903C18.340976684070025,28.187310112253556,20.88286121988338,27.93085416932464,22.749562769200285,26.502524673179877C24.574787171148664,25.10593192307472,24.638094493545935,22.45817648208662,25.80179546682697,20.476330001680314C27.145608055387697,18.187743577750602,30.416834286072884,16.607512035287286,30.10744031821473,13.971656298411185C29.799970306742182,11.352191545210669,26.332993948322105,10.519674967521283,24.419977419042596,8.704048034498381C22.73752334865891,7.10724587570412,21.535655862124724,5.125486745713973,19.54038446759354,3.942557797954967C17.08301994000391,2.4856694554220344,14.362647731424218,0.2843999287167588,11.631477555146844,1.1221788567623214C8.896018116006417,1.9612735043755356,8.065479198219013,5.411179876301814,6.6486949469374,7.897048045806386C5.490415538168022,9.929347537452877,4.566937246549313,11.995552243270259,4.125156883305966,14.29265531522378C3.664460445219332,16.68811534743875,2.8971068635402144,19.30688391104072,4.0398732007119165,21.462006894221087C5.172897534145176,23.598757603493812,7.865668569137629,24.195493371303606,9.989617219485563,25.352338159689054C11.949073328138404,26.419589285084076,13.77775619354392,27.77597962139535,16,27.976293552666903" fill="#111c1d" strokewidth="0"/>

</g>

<g id="iconCarrier"> <g> <path d="M478.409,116.617c-0.368-4.271-3.181-7.94-7.2-9.403c-4.029-1.472-8.539-0.47-11.57,2.556l-62.015,62.011l-68.749-21.768 l-21.768-68.748l62.016-62.016c3.035-3.032,4.025-7.543,2.563-11.565c-1.477-4.03-5.137-6.837-9.417-7.207 c-37.663-3.245-74.566,10.202-101.247,36.887c-36.542,36.545-46.219,89.911-29.083,135.399c-1.873,1.578-3.721,3.25-5.544,5.053 L19.386,373.152c-0.073,0.071-0.145,0.149-0.224,0.219c-24.345,24.346-24.345,63.959,0,88.309 c24.349,24.344,63.672,24.048,88.013-0.298c0.105-0.098,0.201-0.196,0.297-0.305l193.632-208.621 c1.765-1.773,3.404-3.628,4.949-5.532c45.5,17.167,98.9,7.513,135.474-29.056C468.202,191.181,481.658,154.275,478.409,116.617z M75.98,435.38c-8.971,8.969-23.5,8.963-32.47,0c-8.967-8.961-8.967-23.502,0-32.466c8.97-8.963,23.499-8.963,32.47,0 C84.947,411.878,84.947,426.419,75.98,435.38z"/> </g> </g>

</svg>